<svg width="288" height="72" viewBox="0 0 288 72" fill="none" xmlns="http://www.w3.org/2000/svg">
<path d="M270.804 66.4415L270.788 66.4395H270.771H270.121C269.747 66.4395 269.423 66.5595 269.171 66.8115L269.171 66.8114L269.166 66.8166C268.919 67.0784 268.799 67.4054 268.799 67.7793V69.7129C268.799 70.0509 268.926 70.3471 269.168 70.5904C269.309 70.7378 269.526 70.8499 269.782 70.9415C270.046 71.0358 270.38 71.1178 270.78 71.1894L270.781 71.1896C271.601 71.3344 272.974 71.4043 274.885 71.4043C276.855 71.4043 278.48 70.7612 279.739 69.4657C281.002 68.1789 282.035 66.0568 282.86 63.1363L282.86 63.1359L287.465 46.7191C287.465 46.7188 287.465 46.7186 287.465 46.7184C287.497 46.6076 287.51 46.4837 287.51 46.3516C287.51 46.1396 287.399 45.9267 287.249 45.727C287.049 45.4609 286.748 45.3457 286.398 45.3457H282.689C282.287 45.3457 281.921 45.4864 281.598 45.7549C281.289 46.0102 281.079 46.3353 280.972 46.7235C280.972 46.7239 280.972 46.7242 280.972 46.7245L277.528 58.8386C276.881 58.7892 276.306 58.4785 275.797 57.88C275.244 57.2168 274.676 55.9922 274.104 54.1697C274.104 54.1695 274.104 54.1694 274.104 54.1692L271.802 46.7207C271.692 46.3228 271.451 45.9972 271.095 45.7459C270.754 45.4846 270.381 45.3457 269.98 45.3457H266.307V45.3455L266.297 45.3459C265.954 45.3596 265.658 45.4724 265.45 45.7132L265.45 45.7131L265.443 45.7208C265.291 45.9112 265.178 46.1193 265.178 46.334C265.178 46.4733 265.198 46.6066 265.244 46.7307L267.861 55.2143L267.861 55.2153C268.826 58.2993 269.991 60.4899 271.377 61.7421L271.378 61.743C272.69 62.9167 274.305 63.531 276.207 63.5942C275.895 64.6271 275.488 65.3915 274.998 65.9063C274.471 66.46 273.84 66.7344 273.09 66.7382L270.804 66.4415Z" fill="black" stroke="white" stroke-width="0.5"/>
<path d="M256.738 64.7342L256.743 64.7393L256.748 64.7443C257.008 64.9897 257.328 65.1113 257.693 65.1113H261.631C261.996 65.1113 262.313 64.9894 262.563 64.7393C262.822 64.4803 262.953 64.1585 262.953 63.7891V40.7441C262.953 40.3683 262.826 40.0442 262.564 39.7939C262.315 39.5336 261.998 39.4043 261.631 39.4043H257.693C257.324 39.4043 257.002 39.535 256.743 39.7939C256.491 40.046 256.371 40.3703 256.371 40.7441V63.7891C256.371 64.1541 256.493 64.4743 256.738 64.7342Z" fill="black" stroke="white" stroke-width="0.5"/>
<path d="M246.425 39.6709L246.425 39.6709L246.422 39.6738C246.015 40.0939 245.824 40.6539 245.824 41.3242V41.9219C245.824 42.5945 246.023 43.1555 246.442 43.5752C246.862 43.9949 247.423 44.1934 248.096 44.1934H250.275C250.957 44.1934 251.52 43.9963 251.93 43.5738C252.349 43.1543 252.547 42.5937 252.547 41.9219V41.3242C252.547 40.6426 252.35 40.0792 251.927 39.6694C251.508 39.2507 250.947 39.0527 250.275 39.0527H248.096C247.413 39.0527 246.845 39.2503 246.425 39.6709ZM246.272 46.1522L246.272 46.1522L246.267 46.1572C246.015 46.4093 245.895 46.7336 245.895 47.1074V63.7891C245.895 64.1629 246.015 64.4872 246.267 64.7393C246.519 64.9913 246.843 65.1113 247.217 65.1113H251.154C251.518 65.1113 251.835 64.9902 252.084 64.7418C252.348 64.4911 252.477 64.1661 252.477 63.7891V47.1074C252.477 46.7436 252.355 46.4271 252.107 46.1773C251.856 45.9133 251.531 45.7852 251.154 45.7852H247.217C246.852 45.7852 246.532 45.9068 246.272 46.1522Z" fill="black" stroke="white" stroke-width="0.5"/>
<path d="M228.742 50.3066L228.936 50.4651C229.453 49.834 230.37 49.4844 231.766 49.4844C233.191 49.4844 234.116 49.7538 234.618 50.2252C235.084 50.6626 235.364 51.4504 235.397 52.6582H229.832C227.348 52.6582 225.291 53.1932 223.68 54.2832L223.679 54.2837C222.06 55.3877 221.25 56.979 221.25 59.0254C221.25 61.0716 222.06 62.6735 223.677 63.8008L223.678 63.8013L229.779 65.2129L229.778 65.4629C229.778 65.4629 229.779 65.4629 229.779 65.4629C232.083 65.4739 234.141 64.8932 235.945 63.7176V63.7891C235.945 64.1541 236.067 64.4743 236.312 64.7342L236.312 64.7342L236.317 64.7393C236.569 64.9913 236.894 65.1113 237.268 65.1113H240.66C241.034 65.1113 241.358 64.9913 241.61 64.7393C241.862 64.4872 241.982 64.1629 241.982 63.7891V52.9082C241.982 50.2376 241.117 48.2249 239.35 46.924C237.607 45.6292 235.311 44.9941 232.486 44.9941C229.279 44.9941 226.835 45.415 225.185 46.2842C224.356 46.7207 223.721 47.2736 223.294 47.9482C222.866 48.6237 222.656 49.4071 222.656 50.2891C222.656 50.6541 222.778 50.9743 223.023 51.2342L223.028 51.2393L223.033 51.2443C223.295 51.4914 223.622 51.6113 223.996 51.6113H226.615C227.54 51.6113 228.318 51.221 228.936 50.4648L228.742 50.3066ZM228.742 50.3066C229.328 49.5918 230.336 49.2344 231.766 49.2344C233.207 49.2344 234.215 49.5039 234.789 50.043C235.328 50.5486 235.614 51.4204 235.647 52.6582L223.205 51.0625C223.416 51.2617 223.68 51.3613 223.996 51.3613H226.615C227.459 51.3613 228.168 51.0098 228.742 50.3066ZM227.85 59.043C227.85 58.4816 228.053 58.0368 228.464 57.6876C228.887 57.3373 229.474 57.1484 230.254 57.1484H235.4V59.5016C233.797 60.4851 232.141 60.9727 230.43 60.9727C229.562 60.9727 228.93 60.7754 228.498 60.4154C228.062 60.052 227.85 59.6005 227.85 59.043Z" fill="black" stroke="white" stroke-width="0.5"/>
<path d="M199.944 62.8013L199.945 62.802C201.645 64.5752 203.762 65.4629 206.277 65.4629C208.603 65.4629 210.673 64.8817 212.479 63.7152V63.7891C212.479 64.1541 212.6 64.4743 212.846 64.7342L212.846 64.7342L212.851 64.7393C213.103 64.9913 213.427 65.1113 213.801 65.1113H217.176C217.55 65.1113 217.874 64.9913 218.126 64.7393C218.385 64.4803 218.516 64.1585 218.516 63.7891V40.7441C218.516 40.3683 218.388 40.0442 218.126 39.7939C217.876 39.5316 217.552 39.4043 217.176 39.4043H213.256C212.886 39.4043 212.565 39.535 212.306 39.7939C212.054 40.046 211.934 40.3703 211.934 40.7441V45.8021C210.149 45.2655 208.538 44.9941 207.104 44.9941C204.168 44.9941 201.802 45.8733 200.036 47.652L200.036 47.652C198.276 49.4238 197.414 51.9628 197.414 55.2285C197.414 58.4807 198.245 61.0179 199.944 62.8013ZM205.142 51.0179L205.143 51.0166C205.746 50.1916 206.795 49.748 208.369 49.748C209.326 49.748 210.513 49.9576 211.934 50.3861V59.2553C210.315 60.2485 208.919 60.7266 207.736 60.7266C206.54 60.7266 205.673 60.2996 205.094 59.4632C204.506 58.6128 204.189 57.2171 204.189 55.2285C204.189 53.2411 204.523 51.8547 205.142 51.0179Z" fill="black" stroke="white" stroke-width="0.5"/>
<path d="M183.834 64.0879H183.834L183.834 64.076C183.819 63.7724 183.692 63.4386 183.483 63.0826L183.483 63.0825L183.48 63.0775L180.492 58.2435L180.491 58.2418C179.586 56.8037 178.528 55.7943 177.314 55.2384C177.859 55.0264 178.375 54.7103 178.86 54.2931C179.554 53.6965 180.103 52.9835 180.504 52.156L180.505 52.154L182.773 47.3728L182.773 47.3721C182.967 46.9607 183.078 46.5932 183.078 46.2812C183.078 45.9953 182.983 45.7425 182.762 45.57C182.553 45.4067 182.268 45.3457 181.949 45.3457H178.627C178.048 45.3457 177.508 45.5139 177.012 45.8447C176.516 46.1751 176.14 46.6148 175.887 47.1595C175.887 47.1598 175.887 47.16 175.887 47.1602L174.2 50.7445C174.2 50.7445 174.2 50.7446 174.2 50.7447C173.845 51.4936 173.342 52.0461 172.694 52.4139C172.099 52.7514 171.368 52.9405 170.492 52.9704V40.7441C170.492 40.3716 170.373 40.0481 170.123 39.7965C169.872 39.5324 169.547 39.4043 169.17 39.4043H165.232C164.863 39.4043 164.541 39.535 164.282 39.7939C164.03 40.046 163.91 40.3703 163.91 40.7441V63.7891C163.91 64.1629 164.03 64.4872 164.282 64.7393C164.534 64.9913 164.859 65.1113 165.232 65.1113H169.17C169.534 65.1113 169.85 64.9902 170.1 64.7418C170.364 64.4911 170.492 64.1661 170.492 63.7891V57.4876C172.11 57.5553 173.342 58.2885 174.213 59.7013C174.213 59.7014 174.213 59.7015 174.213 59.7015L176.444 63.3386C176.445 63.3388 176.445 63.339 176.445 63.3392C177.15 64.5022 178.121 65.1113 179.348 65.1113H182.67C183.004 65.1113 183.301 65.0416 183.517 64.8588C183.741 64.6693 183.834 64.3962 183.834 64.0879Z" fill="black" stroke="white" stroke-width="0.5"/>
<path d="M155.159 51.2833L155.159 51.2833L155.161 51.2857C155.743 52.1903 156.487 52.6836 157.393 52.6836H160.012C160.384 52.6836 160.708 52.5644 160.959 52.3141C161.223 52.0634 161.352 51.7384 161.352 51.3613C161.352 49.2567 160.431 47.6518 158.61 46.5759C156.82 45.5118 154.278 44.9941 151.012 44.9941C147.734 44.9941 145.14 45.856 143.265 47.6101C141.383 49.3588 140.461 51.9191 140.461 55.2461C140.461 58.5623 141.389 61.1169 143.284 62.8653C145.171 64.6076 147.794 65.4629 151.117 65.4629C154.43 65.4629 156.996 64.9454 158.786 63.881C160.607 62.8051 161.527 61.2002 161.527 59.0957C161.527 58.7285 161.398 58.4113 161.138 58.163C160.887 57.9007 160.563 57.7734 160.188 57.7734H157.568C156.661 57.7734 155.917 58.2744 155.336 59.1902L155.335 59.1913C154.706 60.194 153.563 60.7266 151.82 60.7266C150.074 60.7266 148.912 60.284 148.254 59.4671C147.593 58.6316 147.236 57.2372 147.236 55.2285C147.236 53.2178 147.582 51.8287 148.221 51.0051C148.856 50.1902 149.987 49.748 151.697 49.748C153.403 49.748 154.529 50.2792 155.159 51.2833Z" fill="black" stroke="white" stroke-width="0.5"/>
<path d="M131.604 39.6709L131.604 39.6709L131.602 39.6738C131.195 40.0939 131.004 40.6539 131.004 41.3242V41.9219C131.004 42.5945 131.202 43.1555 131.622 43.5752C132.042 43.9949 132.603 44.1934 133.275 44.1934H135.455C136.137 44.1934 136.7 43.9963 137.11 43.5738C137.529 43.1543 137.727 42.5937 137.727 41.9219V41.3242C137.727 40.6426 137.53 40.0792 137.107 39.6694C136.687 39.2507 136.127 39.0527 135.455 39.0527H133.275C132.593 39.0527 132.025 39.2503 131.604 39.6709ZM131.451 46.1522L131.451 46.1522L131.446 46.1572C131.194 46.4093 131.074 46.7336 131.074 47.1074V63.7891C131.074 64.1629 131.194 64.4872 131.446 64.7393C131.698 64.9913 132.023 65.1113 132.396 65.1113H136.334C136.698 65.1113 137.014 64.9902 137.264 64.7418C137.528 64.4911 137.656 64.1661 137.656 63.7891V47.1074C137.656 46.7436 137.535 46.4271 137.287 46.1773C137.036 45.9133 136.711 45.7852 136.334 45.7852H132.396C132.031 45.7852 131.711 45.9068 131.451 46.1522Z" fill="black" stroke="white" stroke-width="0.5"/>
<path d="M120.524 59.4563L120.523 59.458C119.919 60.2835 118.876 60.7266 117.314 60.7266C116.358 60.7266 115.171 60.5118 113.75 60.0723V51.2188C115.357 50.2257 116.741 49.748 117.912 49.748C119.122 49.748 119.993 50.1757 120.572 51.0114L120.572 51.0115L120.574 51.0145C121.172 51.852 121.494 53.24 121.494 55.2285C121.494 57.2149 121.155 58.6074 120.524 59.4563ZM107.168 46.6855V69.7129C107.168 70.0867 107.288 70.4111 107.54 70.6631C107.799 70.922 108.121 71.0527 108.49 71.0527H112.428C112.795 71.0527 113.112 70.9234 113.36 70.6632C113.623 70.4128 113.75 70.0887 113.75 69.7129V64.6549C115.535 65.1915 117.146 65.4629 118.58 65.4629C121.516 65.4629 123.875 64.5899 125.631 62.8227C127.39 61.051 128.252 58.518 128.252 55.2637C128.252 52.0002 127.421 49.4572 125.722 47.6736C124.033 45.8881 121.922 44.9941 119.406 44.9941C117.081 44.9941 115.011 45.5753 113.205 46.7418V46.6855C113.205 46.3097 113.078 45.9856 112.816 45.7353C112.567 45.475 112.25 45.3457 111.883 45.3457H108.49C108.121 45.3457 107.799 45.4764 107.54 45.7353C107.288 45.9874 107.168 46.3117 107.168 46.6855Z" fill="black" stroke="white" stroke-width="0.5"/>
<path d="M105.119 64.0879H105.119L105.119 64.076C105.104 63.7724 104.977 63.4386 104.768 63.0826L104.768 63.0825L104.765 63.0775L101.777 58.2435L101.776 58.2418C100.871 56.8037 99.8137 55.7943 98.5992 55.2384C99.1445 55.0264 99.66 54.7103 100.145 54.2931C100.839 53.6965 101.388 52.9835 101.789 52.156L101.79 52.154L104.058 47.3728L104.058 47.3721C104.252 46.9607 104.363 46.5932 104.363 46.2812C104.363 45.9953 104.268 45.7425 104.047 45.57C103.838 45.4067 103.553 45.3457 103.234 45.3457H99.9121C99.3333 45.3457 98.7932 45.5139 98.2969 45.8447C97.8014 46.1751 97.4256 46.6148 97.1721 47.1595C97.172 47.1598 97.1719 47.16 97.1718 47.1602L95.485 50.7445C95.485 50.7445 95.485 50.7446 95.4849 50.7447C95.1298 51.4936 94.6275 52.0461 93.9792 52.4139C93.3842 52.7514 92.6533 52.9405 91.7773 52.9704V40.7441C91.7773 40.3716 91.6581 40.0481 91.4078 39.7965C91.1571 39.5324 90.8321 39.4043 90.4551 39.4043H86.5176C86.1482 39.4043 85.8263 39.535 85.5674 39.7939C85.3153 40.046 85.1953 40.3703 85.1953 40.7441V63.7891C85.1953 64.1629 85.3153 64.4872 85.5674 64.7393C85.8194 64.9913 86.1438 65.1113 86.5176 65.1113H90.4551C90.8189 65.1113 91.1354 64.9902 91.3852 64.7418C91.6492 64.4911 91.7773 64.1661 91.7773 63.7891V57.4876C93.3948 57.5553 94.6269 58.2885 95.498 59.7013C95.4981 59.7014 95.4981 59.7015 95.4981 59.7015L97.7296 63.3386C97.7297 63.3388 97.7298 63.339 97.7299 63.3392C98.4354 64.5022 99.4066 65.1113 100.633 65.1113H103.955C104.289 65.1113 104.586 65.0416 104.802 64.8588C105.026 64.6693 105.119 64.3962 105.119 64.0879Z" fill="black" stroke="white" stroke-width="0.5"/>
<path d="M76.4445 51.2833L76.4445 51.2833L76.446 51.2857C77.0284 52.1903 77.7723 52.6836 78.6777 52.6836H81.2969C81.6694 52.6836 81.9929 52.5644 82.2446 52.3141C82.5086 52.0634 82.6367 51.7384 82.6367 51.3613C82.6367 49.2567 81.7165 47.6518 79.895 46.5759C78.1052 45.5118 75.563 44.9941 72.2969 44.9941C69.0189 44.9941 66.4255 45.856 64.5502 47.6101C62.6681 49.3588 61.7461 51.9191 61.7461 55.2461C61.7461 58.5623 62.6745 61.1169 64.5687 62.8653C66.4562 64.6076 69.0788 65.4629 72.4023 65.4629C75.7147 65.4629 78.2807 64.9454 80.071 63.881C81.8923 62.8051 82.8125 61.2002 82.8125 59.0957C82.8125 58.7285 82.6832 58.4113 82.4229 58.163C82.1726 57.9007 81.8485 57.7734 81.4727 57.7734H78.8535C77.9464 57.7734 77.2026 58.2744 76.621 59.1902L76.6203 59.1913C75.991 60.194 74.8485 60.7266 73.1055 60.7266C71.3592 60.7266 70.1974 60.284 69.5391 59.4671C68.8777 58.6316 68.5215 57.2372 68.5215 55.2285C68.5215 53.2178 68.8667 51.8287 69.5059 51.0051C70.1409 50.1902 71.272 49.748 72.9824 49.748C74.6879 49.748 75.8143 50.2792 76.4445 51.2833Z" fill="black" stroke="white" stroke-width="0.5"/>
<path d="M52.4463 59.6289L52.4451 59.6305C51.7795 60.5108 50.7171 60.9727 49.1992 60.9727C47.6938 60.9727 46.6368 60.5112 45.9709 59.6305C45.2936 58.7347 44.9316 57.2781 44.9316 55.2109C44.9316 53.1433 45.2938 51.6936 45.97 50.8102C46.6355 49.9407 47.6927 49.4844 49.1992 49.4844C50.7182 49.4844 51.7808 49.9411 52.446 50.8102L52.4472 50.8117C53.1341 51.6949 53.502 53.1439 53.502 55.2109C53.502 57.2775 53.1343 58.7334 52.4463 59.6289ZM38.332 55.2285C38.332 58.5562 39.2603 61.1167 41.1546 62.8653C43.0439 64.6093 45.7383 65.4629 49.1992 65.4629C52.6716 65.4629 55.372 64.6094 57.2614 62.8653C59.1557 61.1167 60.084 58.5562 60.084 55.2285C60.084 51.8898 59.156 49.3287 57.2611 47.5914C55.3717 45.8475 52.6714 44.9941 49.1992 44.9941C45.7385 44.9941 43.0442 45.8477 41.155 47.5914C39.26 49.3287 38.332 51.8898 38.332 55.2285Z" fill="black" stroke="white" stroke-width="0.5"/>
<path d="M35.2246 60.5859H35.2137L35.2028 60.5869L32.8057 60.7969C31.9382 60.7944 31.2635 60.4981 30.7555 59.9166C30.2449 59.3204 29.9727 58.4606 29.9727 57.3027V51.1016H34.627C34.9908 51.1016 35.3073 50.9805 35.5571 50.732C35.8211 50.4814 35.9492 50.1563 35.9492 49.7793V47.6875C35.9492 47.3105 35.8211 46.9854 35.5571 46.7348C35.3073 46.4863 34.9908 46.3652 34.627 46.3652H29.9727V40.7441C29.9727 40.3683 29.8453 40.0442 29.5831 39.7939C29.3348 39.5336 29.0176 39.4043 28.6504 39.4043H24.7129C24.3435 39.4043 24.0216 39.535 23.7627 39.7939C23.5106 40.046 23.3906 40.3703 23.3906 40.7441V57.3027C23.3906 59.9752 24.0289 62.026 25.3495 63.4081C26.6722 64.7923 28.6382 65.4629 31.1992 65.4629C33.1262 65.4629 34.7008 65.3457 35.9176 65.1077C36.277 65.0534 36.5843 64.9098 36.8252 64.669C37.0751 64.4191 37.2148 64.1237 37.2148 63.7891V61.9082C37.2148 61.5312 37.0867 61.2061 36.8227 60.9555C36.571 60.7051 36.2476 60.5859 35.875 60.5859H35.2246Z" fill="black" stroke="white" stroke-width="0.5"/>
<path d="M19.669 51.2393L19.669 51.2393L19.6739 51.2342C19.9194 50.9743 20.041 50.6541 20.041 50.2891C20.041 49.4068 19.8299 48.6233 19.3999 47.9477C18.9705 47.2731 18.3321 46.7203 17.4988 46.2839C15.8397 45.415 13.3828 44.9941 10.1582 44.9941C7.08775 44.9941 4.74263 45.4686 3.15782 46.4511C1.55325 47.4459 0.75 48.9484 0.75 50.9219C0.75 52.3327 1.23126 53.523 2.19546 54.4748C3.13908 55.4063 4.27541 56.0824 5.59998 56.5039L5.60256 56.5047C6.91012 56.9052 8.22371 57.2468 9.54332 57.5296L9.54541 57.53C10.8489 57.7977 11.9419 58.1048 12.8272 58.4497L12.8282 58.4501C13.7332 58.7982 14.0391 59.1807 14.0391 59.5352C14.0391 59.7626 13.9727 59.9532 13.8418 60.1178C13.7078 60.2864 13.4957 60.4404 13.1861 60.5702C12.5617 60.832 11.5956 60.9727 10.2637 60.9727C8.59207 60.9727 7.56429 60.6208 7.06533 60.0106C6.44848 59.2431 5.67054 58.8457 4.74414 58.8457H2.125C1.74675 58.8457 1.41809 58.9744 1.15721 59.2353C0.905159 59.4874 0.785156 59.8117 0.785156 60.1855C0.785156 61.0652 0.997213 61.8464 1.42893 62.5199C1.85995 63.1923 2.50075 63.7431 3.33681 64.1779C5.0016 65.0435 7.46693 65.4629 10.7031 65.4629C13.9421 65.4629 16.4124 64.9888 18.0807 64.009C19.7697 63.0171 20.6211 61.515 20.6211 59.5352C20.6211 58.1028 20.1411 56.9059 19.1756 55.9646C18.2431 55.0325 17.1063 54.3566 15.7705 53.9354C14.4615 53.5226 13.1462 53.1864 11.8249 52.9268C10.5338 52.6593 9.44084 52.3522 8.5434 52.0071C7.65225 51.6598 7.34961 51.278 7.34961 50.9219C7.34961 50.686 7.4096 50.4904 7.52315 50.3252C7.63804 50.1581 7.8178 50.0077 8.07879 49.8812C8.60761 49.6248 9.43213 49.4844 10.5801 49.4844C12.2514 49.4844 13.2787 49.8419 13.7778 50.4632L13.7777 50.4632L13.779 50.4648C14.3966 51.221 15.1745 51.6113 16.0996 51.6113H18.7188C19.0926 51.6113 19.4169 51.4913 19.669 51.2393Z" fill="black" stroke="white" stroke-width="0.5"/>
<path fill-rule="evenodd" clip-rule="evenodd" d="M127.928 5.56883C127.928 2.49637 130.422 0 133.491 0H154.095C157.165 0 159.659 2.49637 159.659 5.56883V26.1927C159.659 29.2651 157.165 31.7615 154.095 31.7615H142.738C141.434 31.7615 140.359 30.6862 140.359 29.3804C140.359 28.0746 141.434 26.9992 142.738 26.9992H154.057C154.479 26.9992 154.863 26.6536 154.863 26.1927V5.56883C154.863 5.14636 154.517 4.76231 154.057 4.76231H133.453C133.031 4.76231 132.647 5.10796 132.647 5.56883V26.0775C132.647 27.3833 131.573 28.4586 130.268 28.4586C128.964 28.4586 127.928 27.3833 127.928 26.0775V5.56883Z" fill="url(#paint0_linear_2689_561)"/>
<path fill-rule="evenodd" clip-rule="evenodd" d="M151.716 12.943C152.675 13.7495 152.829 15.1705 152.023 16.1691C152.023 16.2075 151.985 16.2075 151.985 16.2459L145.846 22.506C145.04 23.543 143.544 23.6966 142.508 22.8517L142.469 22.8133L139.477 20.2785L132.071 27.7676C131.112 28.6509 129.616 28.6125 128.695 27.6524C127.889 26.8074 127.851 25.5017 128.541 24.5799L137.481 15.3625C138.325 14.4024 139.784 14.3256 140.781 15.1321L143.659 17.5901L148.263 13.2118C149.184 12.2901 150.642 12.1749 151.716 12.943Z" fill="url(#paint1_linear_2689_561)"/>
<defs>
<linearGradient id="paint0_linear_2689_561" x1="191.362" y1="-21.4752" x2="112.437" y2="40.3868" gradientUnits="userSpaceOnUse">
<stop stop-color="#38EF7D"/>
<stop offset="1" stop-color="#11998E"/>
</linearGradient>
<linearGradient id="paint1_linear_2689_561" x1="155.316" y1="9.22782" x2="135.978" y2="41.5136" gradientUnits="userSpaceOnUse">
<stop stop-color="#38EF7D"/>
<stop offset="1" stop-color="#11998E"/>
</linearGradient>
</defs>
</svg>
