<svg width="288" height="72" viewBox="0 0 288 72" fill="none" xmlns="http://www.w3.org/2000/svg">
<path d="M270.876 66.4415L270.86 66.4395H270.844H270.193C269.82 66.4395 269.495 66.5595 269.243 66.8115L269.243 66.8114L269.238 66.8166C268.991 67.0784 268.871 67.4054 268.871 67.7793V69.7129C268.871 70.0509 268.999 70.3471 269.241 70.5904C269.381 70.7378 269.598 70.8499 269.854 70.9415C270.118 71.0358 270.453 71.1178 270.852 71.1894L270.853 71.1896C271.674 71.3344 273.047 71.4043 274.957 71.4043C276.927 71.4043 278.553 70.7612 279.812 69.4657C281.074 68.1789 282.108 66.0568 282.932 63.1363L282.932 63.1359L287.537 46.7191C287.537 46.7188 287.537 46.7186 287.537 46.7184C287.569 46.6076 287.582 46.4837 287.582 46.3516C287.582 46.1396 287.471 45.9267 287.321 45.727C287.122 45.4609 286.821 45.3457 286.471 45.3457H282.762C282.359 45.3457 281.993 45.4864 281.67 45.7549C281.361 46.0102 281.152 46.3353 281.044 46.7235C281.044 46.7239 281.044 46.7242 281.044 46.7245L277.6 58.8386C276.953 58.7892 276.378 58.4785 275.869 57.88C275.317 57.2168 274.749 55.9922 274.176 54.1697C274.176 54.1695 274.176 54.1694 274.176 54.1692L271.875 46.7207C271.764 46.3228 271.523 45.9972 271.168 45.7459C270.827 45.4846 270.453 45.3457 270.053 45.3457H266.379V45.3455L266.369 45.3459C266.026 45.3596 265.731 45.4724 265.522 45.7132L265.522 45.7131L265.516 45.7208C265.363 45.9112 265.25 46.1193 265.25 46.334C265.25 46.4733 265.271 46.6066 265.316 46.7307L267.933 55.2143L267.933 55.2153C268.899 58.2993 270.064 60.4899 271.45 61.7421L271.45 61.743C272.762 62.9167 274.377 63.531 276.279 63.5942C275.967 64.6271 275.56 65.3915 275.07 65.9063C274.543 66.46 273.912 66.7344 273.162 66.7382L270.876 66.4415Z" fill="white" stroke="black" stroke-width="0.5"/>
<path d="M256.81 64.7342L256.815 64.7393L256.821 64.7443C257.08 64.9897 257.401 65.1113 257.766 65.1113H261.703C262.068 65.1113 262.386 64.9894 262.636 64.7393C262.895 64.4803 263.025 64.1585 263.025 63.7891V40.7441C263.025 40.3683 262.898 40.0442 262.636 39.7939C262.388 39.5336 262.07 39.4043 261.703 39.4043H257.766C257.396 39.4043 257.074 39.535 256.815 39.7939C256.563 40.046 256.443 40.3703 256.443 40.7441V63.7891C256.443 64.1541 256.565 64.4743 256.81 64.7342Z" fill="white" stroke="black" stroke-width="0.5"/>
<path d="M246.497 39.6709L246.497 39.6709L246.494 39.6738C246.088 40.0939 245.896 40.6539 245.896 41.3242V41.9219C245.896 42.5945 246.095 43.1555 246.515 43.5752C246.934 43.9949 247.495 44.1934 248.168 44.1934H250.348C251.029 44.1934 251.593 43.9963 252.002 43.5738C252.421 43.1543 252.619 42.5937 252.619 41.9219V41.3242C252.619 40.6426 252.422 40.0792 252 39.6694C251.58 39.2507 251.019 39.0527 250.348 39.0527H248.168C247.485 39.0527 246.918 39.2503 246.497 39.6709ZM246.344 46.1522L246.344 46.1522L246.339 46.1572C246.087 46.4093 245.967 46.7336 245.967 47.1074V63.7891C245.967 64.1629 246.087 64.4872 246.339 64.7393C246.591 64.9913 246.915 65.1113 247.289 65.1113H251.227C251.59 65.1113 251.907 64.9902 252.157 64.7418C252.421 64.4911 252.549 64.1661 252.549 63.7891V47.1074C252.549 46.7436 252.428 46.4271 252.179 46.1773C251.929 45.9133 251.604 45.7852 251.227 45.7852H247.289C246.924 45.7852 246.604 45.9068 246.344 46.1522Z" fill="white" stroke="black" stroke-width="0.5"/>
<path d="M228.814 50.3066L229.008 50.4651C229.525 49.834 230.442 49.4844 231.838 49.4844C233.263 49.4844 234.188 49.7538 234.69 50.2252C235.156 50.6626 235.436 51.4504 235.469 52.6582H229.904C227.42 52.6582 225.363 53.1932 223.752 54.2832L223.752 54.2837C222.132 55.3877 221.322 56.979 221.322 59.0254C221.322 61.0716 222.132 62.6735 223.75 63.8008L223.75 63.8013L229.852 65.2129L229.85 65.4629C229.851 65.4629 229.851 65.4629 229.851 65.4629C232.155 65.4739 234.213 64.8932 236.018 63.7176V63.7891C236.018 64.1541 236.139 64.4743 236.385 64.7342L236.385 64.7342L236.39 64.7393C236.642 64.9913 236.966 65.1113 237.34 65.1113H240.732C241.106 65.1113 241.431 64.9913 241.683 64.7393C241.935 64.4872 242.055 64.1629 242.055 63.7891V52.9082C242.055 50.2376 241.189 48.2249 239.422 46.924C237.679 45.6292 235.384 44.9941 232.559 44.9941C229.351 44.9941 226.908 45.415 225.257 46.2842C224.428 46.7207 223.793 47.2736 223.366 47.9482C222.938 48.6237 222.729 49.4071 222.729 50.2891C222.729 50.6541 222.85 50.9743 223.096 51.2342L223.1 51.2393L223.106 51.2443C223.367 51.4914 223.694 51.6113 224.068 51.6113H226.688C227.613 51.6113 228.391 51.221 229.008 50.4648L228.814 50.3066ZM228.814 50.3066C229.4 49.5918 230.408 49.2344 231.838 49.2344C233.279 49.2344 234.287 49.5039 234.861 50.043C235.4 50.5486 235.686 51.4204 235.719 52.6582L223.277 51.0625C223.488 51.2617 223.752 51.3613 224.068 51.3613H226.688C227.531 51.3613 228.24 51.0098 228.814 50.3066ZM227.922 59.043C227.922 58.4816 228.125 58.0368 228.536 57.6876C228.959 57.3373 229.546 57.1484 230.326 57.1484H235.473V59.5016C233.869 60.4851 232.213 60.9727 230.502 60.9727C229.635 60.9727 229.002 60.7754 228.57 60.4154C228.134 60.052 227.922 59.6005 227.922 59.043Z" fill="white" stroke="black" stroke-width="0.5"/>
<path d="M200.016 62.8013L200.017 62.802C201.718 64.5752 203.834 65.4629 206.35 65.4629C208.675 65.4629 210.745 64.8817 212.551 63.7152V63.7891C212.551 64.1541 212.672 64.4743 212.918 64.7342L212.918 64.7342L212.923 64.7393C213.175 64.9913 213.499 65.1113 213.873 65.1113H217.248C217.622 65.1113 217.946 64.9913 218.198 64.7393C218.457 64.4803 218.588 64.1585 218.588 63.7891V40.7441C218.588 40.3683 218.461 40.0442 218.198 39.7939C217.948 39.5316 217.624 39.4043 217.248 39.4043H213.328C212.959 39.4043 212.637 39.535 212.378 39.7939C212.126 40.046 212.006 40.3703 212.006 40.7441V45.8021C210.221 45.2655 208.61 44.9941 207.176 44.9941C204.24 44.9941 201.874 45.8733 200.108 47.652L200.108 47.652C198.348 49.4238 197.486 51.9628 197.486 55.2285C197.486 58.4807 198.318 61.0179 200.016 62.8013ZM205.215 51.0179L205.216 51.0166C205.818 50.1916 206.868 49.748 208.441 49.748C209.399 49.748 210.585 49.9576 212.006 50.3861V59.2553C210.388 60.2485 208.991 60.7266 207.809 60.7266C206.612 60.7266 205.746 60.2996 205.166 59.4632C204.578 58.6128 204.262 57.2171 204.262 55.2285C204.262 53.2411 204.595 51.8547 205.215 51.0179Z" fill="white" stroke="black" stroke-width="0.5"/>
<path d="M183.906 64.0879H183.907L183.906 64.076C183.892 63.7724 183.764 63.4386 183.556 63.0826L183.556 63.0825L183.552 63.0775L180.564 58.2435L180.563 58.2418C179.658 56.8037 178.601 55.7943 177.386 55.2384C177.932 55.0264 178.447 54.7103 178.933 54.2931C179.627 53.6965 180.175 52.9835 180.576 52.156L180.577 52.154L182.845 47.3728L182.845 47.3721C183.039 46.9607 183.15 46.5932 183.15 46.2812C183.15 45.9953 183.056 45.7425 182.834 45.57C182.625 45.4067 182.34 45.3457 182.021 45.3457H178.699C178.12 45.3457 177.58 45.5139 177.084 45.8447C176.588 46.1751 176.213 46.6148 175.959 47.1595C175.959 47.1598 175.959 47.16 175.959 47.1602L174.272 50.7445C174.272 50.7445 174.272 50.7446 174.272 50.7447C173.917 51.4936 173.415 52.0461 172.766 52.4139C172.171 52.7514 171.44 52.9405 170.564 52.9704V40.7441C170.564 40.3716 170.445 40.0481 170.195 39.7965C169.944 39.5324 169.619 39.4043 169.242 39.4043H165.305C164.935 39.4043 164.613 39.535 164.354 39.7939C164.102 40.046 163.982 40.3703 163.982 40.7441V63.7891C163.982 64.1629 164.102 64.4872 164.354 64.7393C164.607 64.9913 164.931 65.1113 165.305 65.1113H169.242C169.606 65.1113 169.923 64.9902 170.172 64.7418C170.436 64.4911 170.564 64.1661 170.564 63.7891V57.4876C172.182 57.5553 173.414 58.2885 174.285 59.7013C174.285 59.7014 174.285 59.7015 174.285 59.7015L176.517 63.3386C176.517 63.3388 176.517 63.339 176.517 63.3392C177.223 64.5022 178.194 65.1113 179.42 65.1113H182.742C183.076 65.1113 183.373 65.0416 183.589 64.8588C183.813 64.6693 183.906 64.3962 183.906 64.0879Z" fill="white" stroke="black" stroke-width="0.5"/>
<path d="M155.232 51.2833L155.232 51.2833L155.233 51.2857C155.816 52.1903 156.559 52.6836 157.465 52.6836H160.084C160.457 52.6836 160.78 52.5644 161.032 52.3141C161.296 52.0634 161.424 51.7384 161.424 51.3613C161.424 49.2567 160.504 47.6518 158.682 46.5759C156.892 45.5118 154.35 44.9941 151.084 44.9941C147.806 44.9941 145.213 45.856 143.337 47.6101C141.455 49.3588 140.533 51.9191 140.533 55.2461C140.533 58.5623 141.462 61.1169 143.356 62.8653C145.243 64.6076 147.866 65.4629 151.189 65.4629C154.502 65.4629 157.068 64.9454 158.858 63.881C160.679 62.8051 161.6 61.2002 161.6 59.0957C161.6 58.7285 161.47 58.4113 161.21 58.163C160.96 57.9007 160.636 57.7734 160.26 57.7734H157.641C156.734 57.7734 155.99 58.2744 155.408 59.1902L155.407 59.1913C154.778 60.194 153.636 60.7266 151.893 60.7266C150.146 60.7266 148.985 60.284 148.326 59.4671C147.665 58.6316 147.309 57.2372 147.309 55.2285C147.309 53.2178 147.654 51.8287 148.293 51.0051C148.928 50.1902 150.059 49.748 151.77 49.748C153.475 49.748 154.601 50.2792 155.232 51.2833Z" fill="white" stroke="black" stroke-width="0.5"/>
<path d="M131.677 39.6709L131.677 39.6709L131.674 39.6738C131.267 40.0939 131.076 40.6539 131.076 41.3242V41.9219C131.076 42.5945 131.275 43.1555 131.694 43.5752C132.114 43.9949 132.675 44.1934 133.348 44.1934H135.527C136.209 44.1934 136.772 43.9963 137.182 43.5738C137.601 43.1543 137.799 42.5937 137.799 41.9219V41.3242C137.799 40.6426 137.602 40.0792 137.179 39.6694C136.76 39.2507 136.199 39.0527 135.527 39.0527H133.348C132.665 39.0527 132.097 39.2503 131.677 39.6709ZM131.524 46.1522L131.524 46.1522L131.519 46.1572C131.266 46.4093 131.146 46.7336 131.146 47.1074V63.7891C131.146 64.1629 131.266 64.4872 131.519 64.7393C131.771 64.9913 132.095 65.1113 132.469 65.1113H136.406C136.77 65.1113 137.087 64.9902 137.336 64.7418C137.6 64.4911 137.729 64.1661 137.729 63.7891V47.1074C137.729 46.7436 137.607 46.4271 137.359 46.1773C137.108 45.9133 136.783 45.7852 136.406 45.7852H132.469C132.104 45.7852 131.784 45.9068 131.524 46.1522Z" fill="white" stroke="black" stroke-width="0.5"/>
<path d="M120.596 59.4563L120.595 59.458C119.992 60.2835 118.948 60.7266 117.387 60.7266C116.43 60.7266 115.244 60.5118 113.822 60.0723V51.2188C115.429 50.2257 116.814 49.748 117.984 49.748C119.194 49.748 120.065 50.1757 120.644 51.0114L120.644 51.0115L120.646 51.0145C121.244 51.852 121.566 53.24 121.566 55.2285C121.566 57.2149 121.227 58.6074 120.596 59.4563ZM107.24 46.6855V69.7129C107.24 70.0867 107.36 70.4111 107.612 70.6631C107.871 70.922 108.193 71.0527 108.562 71.0527H112.5C112.867 71.0527 113.184 70.9234 113.433 70.6632C113.695 70.4128 113.822 70.0887 113.822 69.7129V64.6549C115.607 65.1915 117.218 65.4629 118.652 65.4629C121.588 65.4629 123.948 64.5899 125.703 62.8227C127.462 61.051 128.324 58.518 128.324 55.2637C128.324 52.0002 127.493 49.4572 125.795 47.6736C124.105 45.8881 121.994 44.9941 119.479 44.9941C117.153 44.9941 115.083 45.5753 113.277 46.7418V46.6855C113.277 46.3097 113.15 45.9856 112.888 45.7353C112.639 45.475 112.322 45.3457 111.955 45.3457H108.562C108.193 45.3457 107.871 45.4764 107.612 45.7353C107.36 45.9874 107.24 46.3117 107.24 46.6855Z" fill="white" stroke="black" stroke-width="0.5"/>
<path d="M105.191 64.0879H105.192L105.191 64.076C105.177 63.7724 105.049 63.4386 104.841 63.0826L104.841 63.0825L104.838 63.0775L101.849 58.2435L101.848 58.2418C100.943 56.8037 99.8859 55.7943 98.6715 55.2384C99.2168 55.0264 99.7323 54.7103 100.218 54.2931C100.912 53.6965 101.46 52.9835 101.862 52.156L101.863 52.154L104.13 47.3728L104.131 47.3721C104.324 46.9607 104.436 46.5932 104.436 46.2812C104.436 45.9953 104.341 45.7425 104.12 45.57C103.91 45.4067 103.625 45.3457 103.307 45.3457H99.9844C99.4055 45.3457 98.8654 45.5139 98.3691 45.8447C97.8736 46.1751 97.4978 46.6148 97.2443 47.1595C97.2442 47.1598 97.2441 47.16 97.244 47.1602L95.5573 50.7445C95.5573 50.7445 95.5572 50.7446 95.5572 50.7447C95.2021 51.4936 94.6998 52.0461 94.0515 52.4139C93.4564 52.7514 92.7256 52.9405 91.8496 52.9704V40.7441C91.8496 40.3716 91.7304 40.0481 91.4801 39.7965C91.2294 39.5324 90.9044 39.4043 90.5273 39.4043H86.5898C86.2204 39.4043 85.8986 39.535 85.6396 39.7939C85.3876 40.046 85.2676 40.3703 85.2676 40.7441V63.7891C85.2676 64.1629 85.3876 64.4872 85.6396 64.7393C85.8917 64.9913 86.216 65.1113 86.5898 65.1113H90.5273C90.8912 65.1113 91.2077 64.9902 91.4575 64.7418C91.7215 64.4911 91.8496 64.1661 91.8496 63.7891V57.4876C93.4671 57.5553 94.6991 58.2885 95.5703 59.7013C95.5703 59.7014 95.5704 59.7015 95.5704 59.7015L97.8019 63.3386C97.802 63.3388 97.8021 63.339 97.8022 63.3392C98.5077 64.5022 99.4788 65.1113 100.705 65.1113H104.027C104.361 65.1113 104.658 65.0416 104.874 64.8588C105.098 64.6693 105.191 64.3962 105.191 64.0879Z" fill="white" stroke="black" stroke-width="0.5"/>
<path d="M76.5168 51.2833L76.5168 51.2833L76.5183 51.2857C77.1007 52.1903 77.8445 52.6836 78.75 52.6836H81.3691C81.7417 52.6836 82.0652 52.5644 82.3168 52.3141C82.5808 52.0634 82.709 51.7384 82.709 51.3613C82.709 49.2567 81.7888 47.6518 79.9673 46.5759C78.1775 45.5118 75.6353 44.9941 72.3691 44.9941C69.0912 44.9941 66.4978 45.856 64.6225 47.6101C62.7404 49.3588 61.8184 51.9191 61.8184 55.2461C61.8184 58.5623 62.7468 61.1169 64.641 62.8653C66.5284 64.6076 69.151 65.4629 72.4746 65.4629C75.787 65.4629 78.353 64.9454 80.1432 63.881C81.9646 62.8051 82.8848 61.2002 82.8848 59.0957C82.8848 58.7285 82.7554 58.4113 82.4952 58.163C82.2449 57.9007 81.9207 57.7734 81.5449 57.7734H78.9258C78.0187 57.7734 77.2749 58.2744 76.6933 59.1902L76.6926 59.1913C76.0632 60.194 74.9207 60.7266 73.1777 60.7266C71.4315 60.7266 70.2697 60.284 69.6114 59.4671C68.95 58.6316 68.5938 57.2372 68.5938 55.2285C68.5938 53.2178 68.9389 51.8287 69.5781 51.0051C70.2132 50.1902 71.3443 49.748 73.0547 49.748C74.7602 49.748 75.8865 50.2792 76.5168 51.2833Z" fill="white" stroke="black" stroke-width="0.5"/>
<path d="M52.5185 59.6289L52.5174 59.6305C51.8518 60.5108 50.7894 60.9727 49.2715 60.9727C47.766 60.9727 46.7091 60.5112 46.0432 59.6305C45.3659 58.7347 45.0039 57.2781 45.0039 55.2109C45.0039 53.1433 45.366 51.6936 46.0423 50.8102C46.7078 49.9407 47.765 49.4844 49.2715 49.4844C50.7905 49.4844 51.8531 49.9411 52.5183 50.8102L52.5195 50.8117C53.2064 51.6949 53.5742 53.1439 53.5742 55.2109C53.5742 57.2775 53.2066 58.7334 52.5185 59.6289ZM38.4043 55.2285C38.4043 58.5562 39.3326 61.1167 41.2269 62.8653C43.1162 64.6093 45.8106 65.4629 49.2715 65.4629C52.7438 65.4629 55.4442 64.6094 57.3336 62.8653C59.228 61.1167 60.1562 58.5562 60.1562 55.2285C60.1562 51.8898 59.2283 49.3287 57.3333 47.5914C55.4439 45.8475 52.7436 44.9941 49.2715 44.9941C45.8108 44.9941 43.1165 45.8477 41.2272 47.5914C39.3322 49.3287 38.4043 51.8898 38.4043 55.2285Z" fill="white" stroke="black" stroke-width="0.5"/>
<path d="M35.2969 60.5859H35.2859L35.2751 60.5869L32.8779 60.7969C32.0105 60.7944 31.3358 60.4981 30.8278 59.9166C30.3172 59.3204 30.0449 58.4606 30.0449 57.3027V51.1016H34.6992C35.063 51.1016 35.3796 50.9805 35.6293 50.732C35.8933 50.4814 36.0215 50.1563 36.0215 49.7793V47.6875C36.0215 47.3105 35.8933 46.9854 35.6293 46.7348C35.3796 46.4863 35.063 46.3652 34.6992 46.3652H30.0449V40.7441C30.0449 40.3683 29.9176 40.0442 29.6554 39.7939C29.407 39.5336 29.0898 39.4043 28.7227 39.4043H24.7852C24.4158 39.4043 24.0939 39.535 23.8349 39.7939C23.5829 40.046 23.4629 40.3703 23.4629 40.7441V57.3027C23.4629 59.9752 24.1011 62.026 25.4218 63.4081C26.7445 64.7923 28.7104 65.4629 31.2715 65.4629C33.1985 65.4629 34.7731 65.3457 35.9898 65.1077C36.3492 65.0534 36.6566 64.9098 36.8975 64.669C37.1473 64.4191 37.2871 64.1237 37.2871 63.7891V61.9082C37.2871 61.5312 37.159 61.2061 36.895 60.9555C36.6433 60.7051 36.3198 60.5859 35.9473 60.5859H35.2969Z" fill="white" stroke="black" stroke-width="0.5"/>
<path d="M19.7412 51.2393L19.7413 51.2393L19.7462 51.2342C19.9916 50.9743 20.1133 50.6541 20.1133 50.2891C20.1133 49.4068 19.9021 48.6233 19.4721 47.9477C19.0428 47.2731 18.4043 46.7203 17.5711 46.2839C15.9119 45.415 13.4551 44.9941 10.2305 44.9941C7.16001 44.9941 4.8149 45.4686 3.23009 46.4511C1.62552 47.4459 0.822266 48.9484 0.822266 50.9219C0.822266 52.3327 1.30353 53.523 2.26773 54.4748C3.21134 55.4063 4.34767 56.0824 5.67224 56.5039L5.67483 56.5047C6.98238 56.9052 8.29597 57.2468 9.61558 57.5296L9.61768 57.53C10.9212 57.7977 12.0142 58.1048 12.8995 58.4497L12.9005 58.4501C13.8055 58.7982 14.1113 59.1807 14.1113 59.5352C14.1113 59.7626 14.045 59.9532 13.9141 60.1178C13.7801 60.2864 13.568 60.4404 13.2583 60.5702C12.634 60.832 11.6678 60.9727 10.3359 60.9727C8.66434 60.9727 7.63656 60.6208 7.1376 60.0106C6.52074 59.2431 5.7428 58.8457 4.81641 58.8457H2.19727C1.81902 58.8457 1.49036 58.9744 1.22947 59.2353C0.977425 59.4874 0.857422 59.8117 0.857422 60.1855C0.857422 61.0652 1.06948 61.8464 1.5012 62.5199C1.93222 63.1923 2.57302 63.7431 3.40908 64.1779C5.07386 65.0435 7.5392 65.4629 10.7754 65.4629C14.0143 65.4629 16.4846 64.9888 18.153 64.009C19.8419 63.0171 20.6934 61.515 20.6934 59.5352C20.6934 58.1028 20.2133 56.9059 19.2479 55.9646C18.3154 55.0325 17.1786 54.3566 15.8428 53.9354C14.5337 53.5226 13.2185 53.1864 11.8971 52.9268C10.6061 52.6593 9.51311 52.3522 8.61567 52.0071C7.72451 51.6598 7.42188 51.278 7.42188 50.9219C7.42188 50.686 7.48187 50.4904 7.59541 50.3252C7.7103 50.1581 7.89006 50.0077 8.15106 49.8812C8.67987 49.6248 9.50439 49.4844 10.6523 49.4844C12.3236 49.4844 13.351 49.8419 13.85 50.4632L13.85 50.4632L13.8513 50.4648C14.4689 51.221 15.2468 51.6113 16.1719 51.6113H18.791C19.1648 51.6113 19.4892 51.4913 19.7412 51.2393Z" fill="white" stroke="black" stroke-width="0.5"/>
<path fill-rule="evenodd" clip-rule="evenodd" d="M128 5.56883C128 2.49637 130.494 0 133.563 0H154.168C157.237 0 159.731 2.49637 159.731 5.56883V26.1927C159.731 29.2651 157.237 31.7615 154.168 31.7615H142.81C141.506 31.7615 140.432 30.6862 140.432 29.3804C140.432 28.0746 141.506 26.9992 142.81 26.9992H154.129C154.551 26.9992 154.935 26.6536 154.935 26.1927V5.56883C154.935 5.14636 154.59 4.76231 154.129 4.76231H133.525C133.103 4.76231 132.719 5.10796 132.719 5.56883V26.0775C132.719 27.3833 131.645 28.4586 130.341 28.4586C129.036 28.4586 128 27.3833 128 26.0775V5.56883Z" fill="url(#paint0_linear_2689_555)"/>
<path fill-rule="evenodd" clip-rule="evenodd" d="M151.789 12.943C152.748 13.7495 152.901 15.1705 152.095 16.1691C152.095 16.2075 152.057 16.2075 152.057 16.2459L145.918 22.506C145.112 23.543 143.616 23.6966 142.58 22.8517L142.542 22.8133L139.549 20.2785L132.144 27.7676C131.184 28.6509 129.688 28.6125 128.767 27.6524C127.961 26.8074 127.923 25.5017 128.614 24.5799L137.554 15.3625C138.398 14.4024 139.856 14.3256 140.853 15.1321L143.731 17.5901L148.335 13.2118C149.256 12.2901 150.714 12.1749 151.789 12.943Z" fill="url(#paint1_linear_2689_555)"/>
<defs>
<linearGradient id="paint0_linear_2689_555" x1="191.434" y1="-21.4752" x2="112.509" y2="40.3868" gradientUnits="userSpaceOnUse">
<stop stop-color="#38EF7D"/>
<stop offset="1" stop-color="#11998E"/>
</linearGradient>
<linearGradient id="paint1_linear_2689_555" x1="155.388" y1="9.22782" x2="136.05" y2="41.5136" gradientUnits="userSpaceOnUse">
<stop stop-color="#38EF7D"/>
<stop offset="1" stop-color="#11998E"/>
</linearGradient>
</defs>
</svg>
